<svg xmlns="http://www.w3.org/2000/svg" viewBox="0 0 400 200" role="img" aria-label="Capa de Kerbal Space Program"><defs><linearGradient id="g" x1="0" y1="0" x2="1" y2="1"><stop offset="0" stop-color="#35c46b"/><stop offset="1" stop-color="#35e0d0"/></linearGradient></defs><rect width="400" height="200" fill="url(#g)"/><circle cx="40" cy="30" r="70" fill="#fff" fill-opacity=".12"/><circle cx="370" cy="150" r="90" fill="#fff" fill-opacity=".1"/><g transform="translate(134 14) scale(1.1)"><path d="M60 5C80 25 85 55 78 90H42C35 55 40 25 60 5Z" fill="#fff"/><circle cx="60" cy="48" r="10" fill="#35a0ff"/><path d="M42 75L22 100L42 95ZM78 75L98 100L78 95Z" fill="#fff" fill-opacity=".8"/><path d="M60 95Q52 110 60 118Q68 110 60 95Z" fill="#ffd23f"/></g><rect y="160" width="400" height="40" fill="#1b1535" fill-opacity=".6"/><text x="200" y="187" text-anchor="middle" font-family="Arial,Helvetica,sans-serif" font-weight="bold" font-size="18" fill="#fff">Kerbal Space Program</text></svg>